<svg width="28" height="29" viewBox="0 0 28 29" fill="#FFFFFF" xmlns="http://www.w3.org/2000/svg">
    <path d="M23.7749 26.1919C23.1126 26.1919 22.4534 26.1919 21.791 26.1919C20.7463 26.1919 19.7015 26.1919 18.6567 26.1919C18.408 26.1919 18.153 26.2074 17.9043 26.1887C17.9882 26.2012 18.0691 26.2105 18.153 26.2229C18.125 26.2198 18.1001 26.2105 18.0722 26.1981C18.1468 26.2291 18.2214 26.2602 18.296 26.2913C18.2121 26.2416 18.2401 26.2757 18.3862 26.3969C18.5075 26.5398 18.5417 26.5709 18.4919 26.487C18.523 26.5616 18.5541 26.6362 18.5852 26.7107C18.5728 26.6859 18.5666 26.6579 18.5603 26.6299C18.5728 26.7138 18.5821 26.7946 18.5945 26.8785C18.5759 26.6393 18.5914 26.3969 18.5914 26.1608C18.5914 25.5394 18.5914 24.9211 18.5914 24.2997C18.5914 23.38 18.5914 22.4604 18.5914 21.5407C18.5914 20.4191 18.5914 19.2944 18.5914 18.1727C18.5914 16.9424 18.5914 15.712 18.5914 14.4816C18.5914 13.2389 18.5914 11.9992 18.5914 10.7564C18.5914 9.60369 18.5914 8.451 18.5914 7.29831C18.5914 6.31961 18.5914 5.34402 18.5914 4.36532C18.5914 3.66314 18.5914 2.96096 18.5914 2.25879C18.5914 1.92945 18.5852 1.597 18.5914 1.26766C18.5914 1.2397 18.5914 1.21173 18.5945 1.18377C18.5821 1.26766 18.5728 1.34844 18.5603 1.43233C18.5635 1.40437 18.5728 1.37951 18.5852 1.35155C18.5541 1.42612 18.523 1.50068 18.4919 1.57525C18.5417 1.49136 18.5075 1.51933 18.3862 1.66535C18.2432 1.78653 18.2121 1.8207 18.296 1.77099C18.2214 1.80206 18.1468 1.83313 18.0722 1.8642C18.097 1.85177 18.125 1.84556 18.153 1.83934C18.0691 1.85177 17.9882 1.86109 17.9043 1.87352C18.1064 1.85799 18.3147 1.87041 18.5168 1.87041C18.9832 1.87041 19.4496 1.87041 19.9161 1.87041C20.967 1.87041 22.0149 1.87041 23.0659 1.87041C23.3147 1.87041 23.5696 1.85488 23.8184 1.87352C23.7344 1.86109 23.6536 1.85177 23.5696 1.83934C23.5976 1.84245 23.6225 1.85177 23.6505 1.8642C23.5759 1.83313 23.5012 1.80206 23.4266 1.77099C23.5106 1.8207 23.4826 1.78653 23.3364 1.66535C23.2152 1.52243 23.181 1.49136 23.2307 1.57525C23.1996 1.50068 23.1685 1.42612 23.1374 1.35155C23.1499 1.3764 23.1561 1.40437 23.1623 1.43233C23.1499 1.34844 23.1405 1.26766 23.1281 1.18377C23.1468 1.42301 23.1312 1.66535 23.1312 1.90148C23.1312 2.52288 23.1312 3.14117 23.1312 3.76256C23.1312 4.68223 23.1312 5.6019 23.1312 6.52156C23.1312 7.64318 23.1312 8.76791 23.1312 9.88953C23.1312 11.1199 23.1312 12.3503 23.1312 13.5806C23.1312 14.8234 23.1312 16.0631 23.1312 17.3059C23.1312 18.4586 23.1312 19.6113 23.1312 20.764C23.1312 21.7427 23.1312 22.7183 23.1312 23.6969C23.1312 24.3991 23.1312 25.1013 23.1312 25.8035C23.1312 26.1328 23.1374 26.4653 23.1312 26.7946C23.1312 26.8226 23.1312 26.8505 23.1281 26.8785C23.1405 26.7946 23.1499 26.7138 23.1623 26.6299C23.1592 26.6579 23.1499 26.6828 23.1374 26.7107C23.1685 26.6362 23.1996 26.5616 23.2307 26.487C23.181 26.5709 23.2152 26.5429 23.3364 26.3969C23.4795 26.2757 23.5106 26.2416 23.4266 26.2913C23.5012 26.2602 23.5759 26.2291 23.6505 26.1981C23.6256 26.2105 23.5976 26.2167 23.5696 26.2229C23.6536 26.2105 23.7344 26.2012 23.8184 26.1887C23.8029 26.1919 23.7873 26.1919 23.7749 26.1919C23.5261 26.2105 23.296 26.282 23.1157 26.4653C22.954 26.6268 22.8327 26.8909 22.842 27.124C22.8638 27.5993 23.2525 28.0933 23.7749 28.056C24.1107 28.0312 24.4123 27.9318 24.6548 27.6832C24.8756 27.4533 24.9876 27.1488 25 26.835C25 26.8288 25 26.8195 25 26.8133C25 26.7635 25 26.7138 25 26.6672C25 26.4404 25 26.2136 25 25.9868C25 25.1075 25 24.2282 25 23.349C25 22.0565 25 20.7671 25 19.4746C25 17.9553 25 16.4328 25 14.9135C25 13.3662 25 11.8221 25 10.2748C25 8.87044 25 7.46919 25 6.06484C25 5.00846 25 3.94898 25 2.89261C25 2.36442 25 1.83624 25 1.30805C25 1.28009 25 1.25212 25 1.22727C24.9813 0.512663 24.4092 0.00622559 23.7096 0.00622559C23.2276 0.00622559 22.7488 0.00622559 22.2668 0.00622559C20.9173 0.00622559 19.5647 0.00622559 18.2152 0.00622559C18.0659 0.00622559 17.9291 0.00622566 17.7799 0.0248675C17.158 0.108756 16.7382 0.636943 16.7227 1.25212C16.7196 1.39505 16.7227 1.54107 16.7227 1.68399C16.7227 2.43588 16.7227 3.19088 16.7227 3.94277C16.7227 5.14828 16.7227 6.35068 16.7227 7.55619C16.7227 9.03822 16.7227 10.5234 16.7227 12.0054C16.7227 13.5651 16.7227 15.1248 16.7227 16.6845C16.7227 18.1386 16.7227 19.5895 16.7227 21.0436C16.7227 22.2056 16.7227 23.3645 16.7227 24.5265C16.7227 25.2007 16.7227 25.8718 16.7227 26.5461C16.7227 26.6424 16.7196 26.7387 16.7227 26.835C16.7413 27.5123 17.2699 28.0374 17.9447 28.056C17.9695 28.056 17.9944 28.056 18.0193 28.056C18.1996 28.056 18.38 28.056 18.5603 28.056C19.9751 28.056 21.3899 28.056 22.8016 28.056C23.125 28.056 23.4484 28.056 23.7718 28.056C24.2599 28.056 24.7264 27.6273 24.7046 27.124C24.6828 26.6206 24.2973 26.1919 23.7749 26.1919Z" fill="#B3B3C3"/>
    <path d="M17.6524 24.685C18.3738 24.685 19.0983 24.685 19.8197 24.685C20.9701 24.685 22.1206 24.685 23.2742 24.685C23.5385 24.685 23.7997 24.685 24.064 24.685C24.5522 24.685 25.0186 24.2562 24.9969 23.7529C24.9751 23.2465 24.5864 22.8208 24.064 22.8208C23.3426 22.8208 22.6181 22.8208 21.8968 22.8208C20.7463 22.8208 19.5958 22.8208 18.4422 22.8208C18.1779 22.8208 17.9167 22.8208 17.6524 22.8208C17.1642 22.8208 16.6978 23.2496 16.7195 23.7529C16.7413 24.2593 17.13 24.685 17.6524 24.685Z" fill="#B3B3C3"/>
    <path d="M24.064 3.37729C23.3426 3.37729 22.6181 3.37729 21.8968 3.37729C20.7463 3.37729 19.5958 3.37729 18.4422 3.37729C18.1779 3.37729 17.9167 3.37729 17.6524 3.37729C17.1642 3.37729 16.6978 3.80605 16.7195 4.30938C16.7413 4.81582 17.13 5.24148 17.6524 5.24148C18.3738 5.24148 19.0983 5.24148 19.8197 5.24148C20.9701 5.24148 22.1206 5.24148 23.2742 5.24148C23.5385 5.24148 23.7997 5.24148 24.064 5.24148C24.5522 5.24148 25.0186 4.81271 24.9969 4.30938C24.972 3.80295 24.5864 3.37729 24.064 3.37729Z" fill="#B3B3C3"/>
    <path d="M19.9254 11.9028C19.9254 13.242 19.9254 14.5811 19.9254 15.9233C19.9254 16.1128 19.9254 16.3054 19.9254 16.495C19.9254 16.9828 20.3545 17.4488 20.8582 17.4271C21.3651 17.4053 21.791 17.0169 21.791 16.495C21.791 15.1559 21.791 13.8167 21.791 12.4745C21.791 12.285 21.791 12.0924 21.791 11.9028C21.791 11.415 21.3619 10.949 20.8582 10.9707C20.3514 10.9956 19.9254 11.3809 19.9254 11.9028Z" fill="#B3B3C3"/>
    <path d="M11.3987 26.1918C10.7022 26.1918 10.0057 26.1918 9.30608 26.1918C8.19912 26.1918 7.08905 26.1918 5.98209 26.1918C5.71779 26.1918 5.45038 26.2074 5.18608 26.1887C5.27003 26.2012 5.35088 26.2105 5.43483 26.2229C5.40685 26.2198 5.38197 26.2105 5.35399 26.1981C5.42861 26.2291 5.50324 26.2602 5.57787 26.2913C5.49391 26.2415 5.5219 26.2757 5.66804 26.3969C5.78931 26.5398 5.82351 26.5709 5.77376 26.487C5.80486 26.5616 5.83595 26.6361 5.86705 26.7107C5.85461 26.6858 5.84839 26.6579 5.84217 26.6299C5.85461 26.7138 5.86394 26.7946 5.87637 26.8785C5.85772 26.6392 5.87326 26.3969 5.87326 26.1608C5.87326 25.5394 5.87326 24.9211 5.87326 24.2997C5.87326 23.38 5.87326 22.4604 5.87326 21.5407C5.87326 20.4191 5.87326 19.2943 5.87326 18.1727C5.87326 16.9424 5.87326 15.712 5.87326 14.4816C5.87326 13.2388 5.87326 11.9992 5.87326 10.7564C5.87326 9.60367 5.87326 8.45098 5.87326 7.2983C5.87326 6.3196 5.87326 5.344 5.87326 4.36531C5.87326 3.66313 5.87326 2.96095 5.87326 2.25877C5.87326 1.92943 5.86704 1.59699 5.87326 1.26765C5.87326 1.23968 5.87326 1.21172 5.87637 1.18376C5.86394 1.26765 5.85461 1.34843 5.84217 1.43232C5.84528 1.40435 5.85461 1.3795 5.86705 1.35154C5.83595 1.4261 5.80486 1.50067 5.77376 1.57524C5.82351 1.49135 5.78931 1.51931 5.66804 1.66534C5.52501 1.78651 5.49391 1.82069 5.57787 1.77098C5.50324 1.80205 5.42861 1.83312 5.35399 1.86419C5.37886 1.85176 5.40685 1.84555 5.43483 1.83933C5.35088 1.85176 5.27003 1.86108 5.18608 1.87351C5.39752 1.85797 5.61518 1.8704 5.82973 1.8704C6.32102 1.8704 6.81231 1.8704 7.30672 1.8704C8.41989 1.8704 9.53307 1.8704 10.6463 1.8704C10.9106 1.8704 11.178 1.85487 11.4423 1.87351C11.3583 1.86108 11.2775 1.85176 11.1935 1.83933C11.2215 1.84244 11.2464 1.85176 11.2744 1.86419C11.1997 1.83312 11.1251 1.80205 11.0505 1.77098C11.1344 1.82069 11.1064 1.78651 10.9603 1.66534C10.839 1.52242 10.8048 1.49135 10.8546 1.57524C10.8235 1.50067 10.7924 1.4261 10.7613 1.35154C10.7737 1.37639 10.78 1.40435 10.7862 1.43232C10.7737 1.34843 10.7644 1.26765 10.752 1.18376C10.7706 1.423 10.7551 1.66534 10.7551 1.90147C10.7551 2.52287 10.7551 3.14116 10.7551 3.76255C10.7551 4.68222 10.7551 5.60188 10.7551 6.52155C10.7551 7.64317 10.7551 8.7679 10.7551 9.88952C10.7551 11.1199 10.7551 12.3502 10.7551 13.5806C10.7551 14.8234 10.7551 16.0631 10.7551 17.3059C10.7551 18.4586 10.7551 19.6113 10.7551 20.7639C10.7551 21.7426 10.7551 22.7182 10.7551 23.6969C10.7551 24.3991 10.7551 25.1013 10.7551 25.8035C10.7551 26.1328 10.7613 26.4653 10.7551 26.7946C10.7551 26.8226 10.7551 26.8505 10.752 26.8785C10.7644 26.7946 10.7737 26.7138 10.7862 26.6299C10.7831 26.6579 10.7737 26.6827 10.7613 26.7107C10.7924 26.6361 10.8235 26.5616 10.8546 26.487C10.8048 26.5709 10.839 26.5429 10.9603 26.3969C11.1033 26.2757 11.1344 26.2415 11.0505 26.2913C11.1251 26.2602 11.1997 26.2291 11.2744 26.1981C11.2495 26.2105 11.2215 26.2167 11.1935 26.2229C11.2775 26.2105 11.3583 26.2012 11.4423 26.1887C11.4267 26.1918 11.4143 26.1918 11.3987 26.1918C11.15 26.2105 10.9199 26.2819 10.7395 26.4653C10.5778 26.6268 10.4566 26.8909 10.4659 27.1239C10.4877 27.5993 10.8764 28.0933 11.3987 28.056C11.7812 28.0281 12.1108 27.9007 12.3502 27.59C12.5244 27.3663 12.6114 27.1177 12.6207 26.835C12.6207 26.8288 12.6207 26.8194 12.6207 26.8132C12.6207 26.7635 12.6207 26.7107 12.6207 26.661C12.6207 26.4311 12.6207 26.2012 12.6207 25.9681C12.6207 25.0702 12.6207 24.1723 12.6207 23.2713C12.6207 21.957 12.6207 20.6459 12.6207 19.3316C12.6207 17.7968 12.6207 16.2619 12.6207 14.7271C12.6207 13.1643 12.6207 11.6015 12.6207 10.0355C12.6207 8.6374 12.6207 7.23926 12.6207 5.84112C12.6207 4.80028 12.6207 3.75634 12.6207 2.7155C12.6207 2.23081 12.627 1.74612 12.6207 1.26143C12.6145 0.826457 12.428 0.444298 12.0579 0.198847C11.7967 0.0248559 11.5076 0 11.2091 0C10.6556 0 10.1052 0 9.55173 0C8.19601 0 6.84341 0 5.48769 0C5.34155 0 5.20473 -4.65661e-08 5.05859 0.0186418C4.4367 0.10253 4.01693 0.630717 4.00138 1.2459C3.99827 1.39193 4.00138 1.53795 4.00138 1.68398C4.00138 2.45141 4.00138 3.21572 4.00138 3.98315C4.00138 5.21662 4.00138 6.45009 4.00138 7.68356C4.00138 9.18113 4.00138 10.6818 4.00138 12.1794C4.00138 13.7546 4.00138 15.3267 4.00138 16.902C4.00138 18.3591 4.00138 19.8132 4.00138 21.2704C4.00138 22.4169 4.00138 23.5633 4.00138 24.7098C4.00138 25.3467 4.00138 25.9806 4.00138 26.6175C4.00138 26.6734 4.00138 26.7325 4.00138 26.7884C4.0076 27.2265 4.2066 27.6428 4.59528 27.8727C5.02128 28.1244 5.63073 28.0467 6.10647 28.0467C7.54925 28.0467 8.99514 28.0467 10.4379 28.0467C10.7551 28.0467 11.0722 28.0467 11.3894 28.0467C11.8776 28.0467 12.344 27.6179 12.3222 27.1146C12.3098 26.6206 11.9211 26.1918 11.3987 26.1918Z" fill="#B3B3C3"/>
    <path d="M11.6879 19.2726C10.9292 19.2726 10.1705 19.2726 9.41495 19.2726C8.20226 19.2726 6.98647 19.2726 5.77379 19.2726C5.49705 19.2726 5.22031 19.2726 4.94357 19.2726C4.43984 19.2726 4.01074 19.6983 4.01074 20.2047C4.01074 21.1337 4.01074 22.0596 4.01074 22.9886C4.01074 23.1222 4.01074 23.2527 4.01074 23.3863C4.01074 23.8896 4.43674 24.3183 4.94357 24.3183C5.70228 24.3183 6.46098 24.3183 7.21657 24.3183C8.42925 24.3183 9.64504 24.3183 10.8577 24.3183C11.1345 24.3183 11.4112 24.3183 11.6879 24.3183C12.1917 24.3183 12.6208 23.8927 12.6208 23.3863C12.6208 22.4573 12.6208 21.5314 12.6208 20.6024C12.6208 20.4688 12.6208 20.3383 12.6208 20.2047C12.6208 19.7169 12.1917 19.2509 11.6879 19.2726C11.1811 19.2944 10.7551 19.6827 10.7551 20.2047C10.7551 21.1337 10.7551 22.0596 10.7551 22.9886C10.7551 23.1222 10.7551 23.2527 10.7551 23.3863C11.0661 23.0756 11.377 22.7649 11.6879 22.4542C10.9292 22.4542 10.1705 22.4542 9.41495 22.4542C8.20226 22.4542 6.98647 22.4542 5.77379 22.4542C5.49705 22.4542 5.22031 22.4542 4.94357 22.4542C5.25452 22.7649 5.56546 23.0756 5.87641 23.3863C5.87641 22.4573 5.87641 21.5314 5.87641 20.6024C5.87641 20.4688 5.87641 20.3383 5.87641 20.2047C5.56546 20.5154 5.25452 20.8261 4.94357 21.1368C5.70228 21.1368 6.46098 21.1368 7.21657 21.1368C8.42925 21.1368 9.64504 21.1368 10.8577 21.1368C11.1345 21.1368 11.4112 21.1368 11.6879 21.1368C12.1761 21.1368 12.6425 20.708 12.6208 20.2047C12.599 19.7014 12.2103 19.2726 11.6879 19.2726Z" fill="#B3B3C3"/>
    <path d="M11.6879 3.52954C10.9292 3.52954 10.1705 3.52954 9.41495 3.52954C8.20227 3.52954 6.98648 3.52954 5.77379 3.52954C5.49705 3.52954 5.22031 3.52954 4.94357 3.52954C4.45539 3.52954 3.98898 3.9583 4.01074 4.46164C4.03251 4.96807 4.42119 5.39373 4.94357 5.39373C5.70228 5.39373 6.46098 5.39373 7.21657 5.39373C8.42925 5.39373 9.64505 5.39373 10.8577 5.39373C11.1345 5.39373 11.4112 5.39373 11.6879 5.39373C12.1761 5.39373 12.6425 4.96497 12.6208 4.46164C12.599 3.9583 12.2103 3.52954 11.6879 3.52954Z" fill="#B3B3C3"/>
</svg>