
<svg width="30" height="30" viewBox="0 0 30 30" fill="none" xmlns="http://www.w3.org/2000/svg">
<path d="M19.9389 0H9.39399C6.97196 0 5 1.86996 5 4.16671V25.8333C5 28.13 6.97196 30 9.39399 30H19.9389C22.361 30 24.3329 28.13 24.3329 25.8333V4.16671C24.3329 1.86849 22.361 0 19.9389 0ZM22.576 25.8318C22.576 27.2105 21.3928 28.3324 19.9389 28.3324H9.39399C7.94015 28.3324 6.75698 27.2105 6.75698 25.8318V4.16671C6.75698 2.78807 7.94015 1.6661 9.39399 1.6661H19.9389C21.3928 1.6661 22.576 2.78807 22.576 4.16671V25.8318V25.8318Z" fill="white"/>
<path d="M14.6665 27.4979C15.6369 27.4979 16.4235 26.752 16.4235 25.8318C16.4235 24.9117 15.6369 24.1657 14.6665 24.1657C13.6962 24.1657 12.9095 24.9117 12.9095 25.8318C12.9095 26.752 13.6962 27.4979 14.6665 27.4979Z" fill="white"/>
<path d="M16.4235 2.49913H12.908C12.4224 2.49913 12.0295 2.87166 12.0295 3.33218C12.0295 3.7927 12.4224 4.16523 12.908 4.16523H16.4235C16.9092 4.16523 17.302 3.7927 17.302 3.33218C17.302 2.87166 16.9092 2.49913 16.4235 2.49913Z" fill="white"/>
</svg>

